# Blender 4.3.2
# www.blender.org
mtllib corner.mtl
o End
v 0.345907 0.050000 -0.285729
v 0.500000 -0.050000 -0.439822
v 0.345907 0.050000 0.406086
v 0.500000 -0.050000 0.560178
v -0.345907 0.050000 -0.285729
v -0.500000 -0.050000 -0.439822
v -0.345907 0.050000 0.406086
v -0.500000 -0.050000 0.560178
v 0.500000 0.050000 0.560178
v -0.500000 0.050000 0.560178
v 0.500000 0.050000 -0.439822
v -0.500000 0.050000 -0.439822
v -0.345907 0.050000 -0.285729
v -0.345907 0.050000 0.406086
v 0.500000 0.000000 -0.439822
v -0.500000 0.000000 0.560178
v 0.500000 0.000000 0.560178
v -0.500000 0.000000 -0.439822
v 0.000000 -0.050000 -0.439822
v 0.000000 0.050000 0.560178
v 0.000000 -0.050000 0.560178
v 0.000000 0.050000 -0.439822
v 0.000000 0.050000 0.406086
v 0.000000 0.050000 -0.285729
v 0.000000 0.000000 -0.439822
v 0.000000 0.000000 0.560178
v -0.250000 -0.050000 -0.439822
v -0.250000 0.050000 0.560178
v -0.172954 0.050000 0.406086
v -0.250000 0.000000 0.560178
v -0.250000 -0.050000 0.560178
v -0.250000 0.050000 -0.439822
v -0.172954 0.050000 -0.285729
v -0.250000 0.000000 -0.439822
v 0.250000 -0.050000 0.560178
v 0.250000 0.050000 -0.439822
v 0.172954 0.050000 -0.285729
v 0.250000 0.000000 -0.439822
v 0.250000 -0.050000 -0.439822
v 0.250000 0.050000 0.560178
v 0.172954 0.050000 0.406086
v 0.250000 0.000000 0.560178
vn -0.0000 1.0000 -0.0000
vn -0.0000 -0.0000 1.0000
vn -1.0000 -0.0000 -0.0000
vn -0.0000 -1.0000 -0.0000
vn 1.0000 -0.0000 -0.0000
vn -0.0000 -0.0000 -1.0000
vt 0.793238 0.538523
vt 0.836477 0.538523
vt 0.836477 0.711477
vt 0.793238 0.711477
vt 0.500000 0.937500
vt 0.625000 0.937500
vt 0.625000 1.000000
vt 0.500000 1.000000
vt 0.500000 0.000000
vt 0.625000 0.000000
vt 0.625000 0.250000
vt 0.500000 0.250000
vt 0.312500 0.500000
vt 0.375000 0.500000
vt 0.375000 0.750000
vt 0.312500 0.750000
vt 0.500000 0.500000
vt 0.625000 0.500000
vt 0.625000 0.750000
vt 0.500000 0.750000
vt 0.500000 0.437500
vt 0.625000 0.437500
vt 0.875000 0.750000
vt 0.812500 0.750000
vt 0.663523 0.538523
vt 0.663523 0.711477
vt 0.875000 0.500000
vt 0.706762 0.538523
vt 0.687500 0.500000
vt 0.375000 0.437500
vt 0.375000 0.000000
vt 0.375000 0.250000
vt 0.375000 0.937500
vt 0.375000 1.000000
vt 0.375000 0.812500
vt 0.500000 0.812500
vt 0.500000 0.875000
vt 0.375000 0.875000
vt 0.375000 0.312500
vt 0.500000 0.312500
vt 0.500000 0.375000
vt 0.375000 0.375000
vt 0.750000 0.538523
vt 0.750000 0.500000
vt 0.812500 0.500000
vt 0.706762 0.711477
vt 0.750000 0.711477
vt 0.750000 0.750000
vt 0.687500 0.750000
vt 0.625000 0.312500
vt 0.625000 0.375000
vt 0.187500 0.500000
vt 0.250000 0.500000
vt 0.250000 0.750000
vt 0.187500 0.750000
vt 0.625000 0.812500
vt 0.625000 0.875000
vt 0.125000 0.500000
vt 0.125000 0.750000
s 0
usemtl forest
f 33/1/1 5/2/1 7/3/1 29/4/1
f 30/5/2 28/6/2 10/7/2 16/8/2
f 16/9/3 10/10/3 12/11/3 18/12/3
f 39/13/4 2/14/4 4/15/4 35/16/4
f 15/17/5 11/18/5 9/19/5 17/20/5
f 38/21/6 36/22/6 11/18/6 15/17/6
f 29/4/1 7/3/1 10/23/1 28/24/1
f 1/25/1 3/26/1 9/19/1 11/18/1
f 7/3/1 5/2/1 12/27/1 10/23/1
f 37/28/1 1/25/1 11/18/1 36/29/1
f 39/30/6 38/21/6 15/17/6 2/14/6
f 2/14/5 15/17/5 17/20/5 4/15/5
f 8/31/3 16/9/3 18/12/3 6/32/3
f 31/33/2 30/5/2 16/8/2 8/34/2
f 35/35/2 42/36/2 26/37/2 21/38/2
f 27/39/6 34/40/6 25/41/6 19/42/6
f 33/1/1 24/43/1 22/44/1 32/45/1
f 41/46/1 23/47/1 20/48/1 40/49/1
f 34/40/6 32/50/6 22/51/6 25/41/6
f 27/52/4 19/53/4 21/54/4 31/55/4
f 42/36/2 40/56/2 20/57/2 26/37/2
f 37/28/1 24/43/1 23/47/1 41/46/1
f 6/58/4 27/52/4 31/55/4 8/59/4
f 18/12/6 12/11/6 32/50/6 34/40/6
f 5/2/1 33/1/1 32/45/1 12/27/1
f 6/32/6 18/12/6 34/40/6 27/39/6
f 21/38/2 26/37/2 30/5/2 31/33/2
f 23/47/1 29/4/1 28/24/1 20/48/1
f 26/37/2 20/57/2 28/6/2 30/5/2
f 24/43/1 33/1/1 29/4/1 23/47/1
f 1/25/1 37/28/1 41/46/1 3/26/1
f 17/20/2 9/19/2 40/56/2 42/36/2
f 3/26/1 41/46/1 40/49/1 9/19/1
f 4/15/2 17/20/2 42/36/2 35/35/2
f 19/42/6 25/41/6 38/21/6 39/30/6
f 24/43/1 37/28/1 36/29/1 22/44/1
f 25/41/6 22/51/6 36/22/6 38/21/6
f 19/53/4 39/13/4 35/16/4 21/54/4
l 5 13
l 7 14
o Cube.010
v 0.300000 0.050000 0.560178
v 0.300000 0.100000 0.560178
v 0.300000 0.050000 -0.439822
v 0.300000 0.100000 -0.439822
v 0.500000 0.050000 0.560178
v 0.500000 0.100000 0.560178
v 0.500000 0.050000 -0.439822
v 0.500000 0.100000 -0.439822
v -0.500000 0.050000 0.360178
v -0.500000 0.100000 0.360178
v -0.500000 0.050000 -0.439822
v -0.500000 0.100000 -0.439822
v -0.300000 0.050000 0.360178
v -0.300000 0.100000 0.360178
v -0.300000 0.050000 -0.439822
v -0.300000 0.100000 -0.439822
v -0.500000 0.050000 0.560178
v -0.500000 0.100000 0.560178
v -0.500000 0.050000 0.360178
v -0.500000 0.100000 0.360178
v 0.300000 0.050000 0.560178
v 0.300000 0.100000 0.560178
v 0.300000 0.050000 0.360178
v 0.300000 0.100000 0.360178
vn -1.0000 -0.0000 -0.0000
vn -0.0000 -0.0000 -1.0000
vn 1.0000 -0.0000 -0.0000
vn -0.0000 -0.0000 1.0000
vn -0.0000 -1.0000 -0.0000
vn -0.0000 1.0000 -0.0000
vt 0.375000 0.000000
vt 0.625000 0.000000
vt 0.625000 0.250000
vt 0.375000 0.250000
vt 0.625000 0.500000
vt 0.375000 0.500000
vt 0.625000 0.750000
vt 0.375000 0.750000
vt 0.625000 1.000000
vt 0.375000 1.000000
vt 0.125000 0.500000
vt 0.125000 0.750000
vt 0.875000 0.500000
vt 0.875000 0.750000
s 0
usemtl Material
f 43/60/7 44/61/7 46/62/7 45/63/7
f 45/63/8 46/62/8 50/64/8 49/65/8
f 49/65/9 50/64/9 48/66/9 47/67/9
f 47/67/10 48/66/10 44/68/10 43/69/10
f 45/70/11 49/65/11 47/67/11 43/71/11
f 50/64/12 46/72/12 44/73/12 48/66/12
f 51/60/7 52/61/7 54/62/7 53/63/7
f 53/63/8 54/62/8 58/64/8 57/65/8
f 57/65/9 58/64/9 56/66/9 55/67/9
f 55/67/10 56/66/10 52/68/10 51/69/10
f 53/70/11 57/65/11 55/67/11 51/71/11
f 58/64/12 54/72/12 52/73/12 56/66/12
f 59/60/7 60/61/7 62/62/7 61/63/7
f 61/63/8 62/62/8 66/64/8 65/65/8
f 65/65/9 66/64/9 64/66/9 63/67/9
f 63/67/10 64/66/10 60/68/10 59/69/10
f 61/70/11 65/65/11 63/67/11 59/71/11
f 66/64/12 62/72/12 60/73/12 64/66/12
